# xmcd
#
# Track frame offsets:
#	150
#	14224
#	31300
#	48903
#	64782
#	79211
#	95011
#	114354
#	133132
#	149766
#
# Disc length: 2167 seconds
# Revision: 0
# Processed by: cddbd v1.5.2PL0 Copyright (c) Steve Scherf et al.
# Submitted via: dBpowerAMP V12.0
#
DISCID=9208750a
DTITLE=Vasti Jackson - The Soul of Jimmie Rodgers
DYEAR=2016
DGENRE=Blues
TTITLE0=Standing on the Corner
TTITLE1=Those Gambler's Blues
TTITLE2=In the Jailhouse Now
TTITLE3=Ninety-Nine Years Blues
TTITLE4=Miss the Mississippi and You
TTITLE5=Waiting on a Train
TTITLE6=Hobo's Meditation
TTITLE7=The Women Make a Fool Out of Me
TTITLE8=Lowdown Hoedown
TTITLE9=Train Rollin' Blues
EXTD=
EXTT0=
EXTT1=
EXTT2=
EXTT3=
EXTT4=
EXTT5=
EXTT6=
EXTT7=
EXTT8=
EXTT9=
PLAYORDER=
